<svg width="28" height="28" viewBox="0 0 28 28" fill="none" xmlns="http://www.w3.org/2000/svg">
<path fill-rule="evenodd" clip-rule="evenodd" d="M2.3335 14.0069C2.3335 7.56746 7.56998 2.3335 14.0002 2.3335C20.4303 2.3335 25.6668 7.56746 25.6668 14.0069C25.6668 20.4329 20.4303 25.6668 14.0002 25.6668C7.56998 25.6668 2.3335 20.4329 2.3335 14.0069ZM18.2792 15.1871C18.4031 15.0633 18.5608 14.872 18.5945 14.8269C18.7747 14.5906 18.8648 14.2979 18.8648 14.0064C18.8648 13.6788 18.7635 13.3749 18.572 13.1273C18.5563 13.1116 18.5256 13.0782 18.4856 13.0346C18.4107 12.9531 18.3031 12.836 18.2004 12.7334C17.277 11.7428 14.8671 10.122 13.6058 9.62674C13.4144 9.54908 12.9301 9.37911 12.6711 9.36786C12.4234 9.36786 12.1869 9.42414 11.9617 9.5367C11.6801 9.69428 11.4549 9.94191 11.331 10.2346C11.2522 10.4372 11.1283 11.045 11.1283 11.0562C11.0045 11.7203 10.9369 12.8009 10.9369 13.994C10.9369 15.132 11.0045 16.1664 11.1058 16.8417C11.1086 16.8445 11.1183 16.8928 11.1333 16.9679C11.1791 17.196 11.2744 17.6712 11.3761 17.866C11.6238 18.3388 12.1081 18.6314 12.6261 18.6314H12.6711C13.009 18.6202 13.7184 18.3275 13.7184 18.3162C14.9121 17.821 17.2657 16.2789 18.2117 15.2547L18.2792 15.1871Z" fill="url(#paint0_linear_14_1894)"/>
<defs>
<linearGradient id="paint0_linear_14_1894" x1="14.0002" y1="24.7335" x2="14.0002" y2="2.3335" gradientUnits="userSpaceOnUse">
<stop stop-color="white"/>
<stop offset="1" stop-color="white" stop-opacity="0.8"/>
</linearGradient>
</defs>
</svg>
